<?xml version="1.0" standalone="no"?>
<!DOCTYPE svg PUBLIC "-//W3C//DTD SVG 20010904//EN"
 "http://www.w3.org/TR/2001/REC-SVG-20010904/DTD/svg10.dtd">
<svg version="1.0" xmlns="http://www.w3.org/2000/svg"
 width="560.000000pt" height="445.000000pt" viewBox="0 0 560.000000 445.000000"
 preserveAspectRatio="xMidYMid meet">

<g transform="translate(0.000000,445.000000) scale(0.100000,-0.100000)"
fill="#000000" stroke="none">
<path d="M2415 4270 c-417 -82 -740 -250 -1043 -545 -80 -77 -155 -156 -168
-175 -13 -19 -42 -60 -64 -90 -105 -143 -219 -367 -277 -540 -13 -41 -29 -80
-35 -87 -8 -10 -85 -13 -339 -13 -300 0 -329 -1 -329 -17 0 -16 10 -40 144
-333 36 -79 66 -156 66 -170 0 -34 -31 -110 -117 -290 -76 -158 -98 -214 -88
-230 4 -6 122 -10 334 -10 l329 0 10 -27 c6 -16 23 -62 37 -103 31 -87 118
-274 161 -342 129 -209 164 -255 304 -401 95 -100 228 -211 330 -278 234 -153
424 -229 705 -284 246 -48 389 -54 645 -26 159 18 316 57 480 121 30 12 67 26
82 31 58 22 208 106 308 173 281 188 538 488 690 801 32 66 60 129 63 140 3
11 19 58 36 105 l30 85 335 5 c184 3 337 8 340 11 4 3 -10 41 -29 85 -20 43
-40 88 -45 99 -5 11 -38 82 -74 158 -36 76 -68 148 -72 161 -4 17 11 59 53
143 32 65 69 143 82 173 13 30 39 88 57 129 19 41 34 78 34 82 0 5 -150 9
-334 9 -269 0 -336 3 -345 14 -6 7 -27 59 -46 114 -33 97 -144 332 -183 389
-10 15 -39 58 -63 94 -70 105 -106 147 -235 274 -184 182 -285 258 -465 353
-121 63 -235 114 -309 139 -79 25 -233 65 -290 73 -69 10 -651 10 -705 0z
m624 -36 c442 -64 831 -260 1132 -571 198 -204 328 -410 434 -683 104 -268
150 -659 109 -925 -30 -192 -33 -211 -63 -310 -215 -735 -835 -1272 -1601
-1389 -126 -19 -406 -20 -545 -2 -992 132 -1731 1010 -1692 2009 8 209 25 313
83 505 91 301 253 570 484 803 302 306 680 497 1110 563 131 19 416 20 549 0z"/>
<path d="M2585 4183 c-362 -34 -726 -186 -1025 -427 -41 -33 -88 -74 -103 -91
-16 -16 -55 -57 -86 -90 -145 -151 -276 -359 -365 -576 -172 -421 -178 -938
-15 -1369 40 -106 153 -329 199 -393 222 -307 476 -524 775 -662 105 -49 318
-121 397 -135 35 -6 72 -14 82 -17 18 -5 18 -3 -2 30 -62 98 6 317 98 317 73
0 105 -50 97 -151 -7 -80 -28 -133 -68 -175 l-30 -31 38 -6 c21 -4 97 -7 169
-7 105 0 134 3 144 15 10 12 8 40 -10 143 -13 70 -29 138 -37 151 -13 20 -13
25 -2 32 39 24 54 11 109 -98 l54 -108 11 118 c11 124 16 137 63 137 19 0 21
-3 13 -18 -12 -22 42 -291 61 -304 10 -6 10 -10 -2 -18 -8 -5 -21 -10 -29 -10
-8 0 -12 -2 -9 -5 9 -10 178 32 288 70 326 113 633 331 850 602 406 505 524
1163 321 1782 -185 562 -630 1012 -1186 1199 -211 71 -406 103 -615 100 -80
-1 -163 -3 -185 -5z m181 -69 c32 -31 27 -65 -17 -110 -26 -27 -28 -33 -15
-43 8 -7 22 -36 32 -64 9 -29 23 -60 31 -69 14 -15 13 -18 -10 -23 -14 -4 -30
-4 -36 -1 -5 4 -20 38 -33 76 -12 39 -27 69 -33 67 -13 -5 -8 -116 7 -134 8
-10 0 -13 -43 -13 -35 0 -49 3 -40 9 18 11 11 303 -8 309 -30 10 7 22 70 22
62 0 73 -3 95 -26z m272 10 c51 -7 52 -7 52 -40 0 -40 -7 -43 -20 -9 -11 28
-36 43 -50 29 -13 -14 -39 -277 -28 -296 7 -15 4 -18 -21 -18 -44 0 -64 10
-51 25 9 11 40 230 40 288 0 30 -38 20 -60 -15 -16 -26 -20 -29 -20 -13 0 11
3 31 7 43 5 22 10 23 52 18 25 -3 70 -9 99 -12z m-579 -161 c35 -76 71 -144
79 -150 20 -16 13 -22 -32 -30 -32 -5 -36 -3 -36 15 0 12 -10 42 -22 67 -22
45 -43 56 -66 33 -15 -15 -16 -100 -1 -115 14 -14 3 -33 -19 -33 -15 0 -17 15
-14 155 3 106 0 160 -8 169 -12 16 -1 24 35 25 17 1 32 -24 84 -136z m775 122
c26 -5 27 -7 13 -23 -20 -23 -80 -266 -72 -293 6 -19 4 -20 -27 -14 -40 9 -58
23 -41 33 16 10 75 262 68 290 -5 19 -2 23 12 19 10 -3 31 -8 47 -12z m210
-65 c23 -8 26 -15 26 -60 0 -61 -13 -65 -26 -8 -5 23 -17 46 -27 52 -37 23
-100 -88 -122 -216 -6 -29 -3 -40 15 -58 l21 -21 35 20 c39 23 47 12 9 -13
-35 -23 -72 -20 -102 10 -24 24 -25 31 -21 92 6 76 41 157 84 191 29 23 68 27
108 11z m185 -82 c30 -19 33 -23 16 -26 -14 -2 -39 -39 -88 -132 l-67 -129 22
-15 c32 -23 46 -20 79 15 16 17 29 26 29 21 0 -17 -41 -82 -51 -82 -5 0 -41
16 -79 35 -65 33 -88 55 -57 55 16 0 147 250 140 268 -7 19 16 14 56 -10z
m-1640 -3 c31 -16 91 -100 109 -154 21 -59 15 -109 -14 -136 -60 -56 -142 -13
-196 100 -30 64 -37 138 -15 166 30 39 71 48 116 24z m1899 -158 c56 -42 60
-52 37 -83 -14 -18 -14 -17 -15 12 0 18 -8 39 -21 50 -21 19 -21 19 -55 -20
-43 -50 -44 -70 -4 -64 17 3 30 1 30 -2 0 -12 -61 -92 -66 -87 -3 2 1 16 7 31
10 22 10 29 -3 42 -14 14 -20 9 -62 -50 -25 -35 -46 -69 -46 -75 0 -13 33 -31
55 -31 9 0 31 10 48 22 l32 23 -22 -31 c-43 -60 -46 -60 -114 -12 -62 43 -83
68 -57 68 16 0 178 222 178 245 0 19 4 17 78 -38z m-2133 12 c41 -37 40 -47
-4 -25 -41 22 -68 20 -76 -5 -17 -51 113 -229 167 -229 30 0 38 9 49 54 l7 31
1 -31 c2 -49 -32 -84 -80 -84 -35 0 -47 7 -93 53 -61 62 -90 117 -89 171 0 32
7 45 34 67 19 16 37 29 41 29 4 0 23 -14 43 -31z m1205 -109 c582 -71 1065
-528 1185 -1121 23 -110 30 -331 16 -438 -12 -88 -17 -109 -60 -257 -129 -450
-567 -845 -1038 -938 -497 -98 -971 50 -1311 410 -242 256 -366 557 -379 919
-6 179 13 319 63 471 165 498 589 863 1103 949 94 16 309 18 421 5z m-1422
-42 c18 -18 14 -26 -12 -21 -31 6 -66 -13 -66 -35 0 -23 51 -72 74 -72 14 0
17 6 14 29 -4 27 -3 28 17 15 21 -14 65 -67 65 -79 0 -4 -12 3 -26 14 -26 20
-54 19 -54 -3 0 -6 25 -36 55 -66 l55 -54 27 26 27 27 -18 38 -18 38 31 -29
c17 -17 31 -35 31 -41 0 -6 -25 -35 -56 -65 -42 -41 -58 -51 -62 -40 -10 29
-204 219 -218 213 -27 -10 -14 12 38 64 53 54 74 63 96 41z m2557 -39 c42 -37
43 -45 10 -89 l-24 -33 6 50 c5 44 3 52 -14 61 -15 8 -25 7 -41 -4 -19 -13
-22 -25 -22 -82 0 -119 -29 -175 -90 -175 -34 0 -77 34 -91 72 -8 19 -4 32 16
63 30 45 52 51 30 7 -9 -16 -15 -47 -13 -67 2 -30 7 -38 26 -40 43 -6 62 23
62 97 0 156 60 214 145 140z m-2916 -1154 c16 -8 47 -35 70 -61 31 -35 41 -55
41 -81 0 -49 -43 -128 -77 -141 -109 -42 -135 -38 -192 23 -47 51 -56 79 -47
143 7 54 34 87 91 113 50 22 78 23 114 4z m3309 -12 c53 -26 82 -74 82 -137 0
-90 -67 -156 -159 -156 -42 0 -56 5 -88 33 -58 49 -62 58 -63 124 0 54 4 66
28 91 67 73 119 85 200 45z m-2318 -1493 c22 -18 23 -22 10 -33 -22 -17 -60
-73 -60 -87 0 -16 30 -39 52 -40 20 0 73 84 63 100 -10 16 7 12 43 -10 l34
-21 -24 -22 c-31 -30 -158 -230 -158 -251 0 -22 -16 -20 -52 5 -29 21 -29 21
-9 35 26 18 91 116 91 136 0 14 -56 46 -64 37 -22 -27 -85 -129 -87 -142 -4
-16 -6 -16 -36 3 -33 20 -43 40 -20 40 15 0 167 231 167 254 0 22 20 20 50 -4z
m1254 -5 c22 -33 20 -39 -6 -21 -29 21 -41 20 -68 -2 -22 -18 -23 -19 -5 -48
35 -54 47 -65 62 -53 7 6 13 21 13 32 0 21 0 21 18 2 11 -11 29 -38 42 -60
l23 -40 -29 28 c-33 30 -64 36 -64 11 0 -14 45 -88 78 -126 13 -15 16 -16 38
-2 32 22 37 44 19 87 -8 21 -13 37 -10 37 9 0 55 -75 55 -90 0 -8 -30 -34 -65
-57 -67 -44 -88 -52 -80 -30 6 14 -133 222 -167 250 -20 17 -21 20 -6 28 10 5
36 25 60 43 52 42 71 44 92 11z"/>
<path d="M2667 4117 c-7 -19 5 -137 13 -137 5 0 18 12 29 26 23 30 28 86 9
101 -23 18 -46 22 -51 10z"/>
<path d="M2372 3963 c2 -27 8 -39 21 -41 20 -4 22 16 5 53 -17 37 -30 31 -26
-12z"/>
<path d="M1907 3913 c-24 -23 11 -128 72 -217 34 -49 57 -62 77 -45 22 18 16
60 -19 134 -52 107 -102 157 -130 128z m103 -134 c0 -15 -30 -23 -42 -11 -6 6
-8 18 -4 27 4 13 10 14 26 5 11 -6 20 -15 20 -21z"/>
<path d="M2660 3589 c-290 -18 -581 -152 -808 -374 -172 -167 -282 -370 -358
-655 -25 -94 -26 -402 -1 -520 54 -258 177 -484 366 -670 204 -202 471 -334
736 -364 134 -15 191 -16 291 -6 508 51 930 374 1106 843 58 157 72 242 72
452 1 202 -7 252 -61 415 -101 302 -328 573 -608 726 -224 121 -458 170 -735
153z m396 -223 c11 -8 30 -16 42 -18 13 -1 24 -7 25 -13 1 -6 -50 -11 -136
-12 -113 -1 -139 2 -144 13 -8 22 -1 25 77 29 40 2 75 6 78 9 10 10 37 6 58
-8z m-747 -15 c31 -16 196 -40 284 -41 5 0 7 -10 5 -22 -5 -38 -63 -50 -242
-51 -153 0 -161 1 -174 22 -8 11 -20 21 -27 21 -6 0 -20 9 -30 20 -24 27 -12
39 54 49 28 4 54 11 58 15 11 11 32 7 72 -13z m1241 -150 c55 -7 67 -34 23
-53 -15 -7 -35 -21 -43 -31 -14 -17 -32 -19 -170 -19 -174 0 -245 14 -245 47
0 18 10 21 83 27 95 8 180 24 225 43 23 9 38 10 57 2 14 -5 45 -13 70 -16z
m-812 -77 c26 -5 30 -31 5 -37 -10 -3 -73 -5 -140 -5 -99 0 -123 3 -123 14 0
9 11 14 29 14 16 0 34 7 41 15 9 11 28 13 89 9 42 -3 86 -7 99 -10z m-608
-178 c0 -8 -37 -99 -81 -203 -45 -103 -101 -233 -124 -288 -71 -170 -63 -160
-123 -163 -41 -2 -52 0 -52 12 0 15 303 636 317 649 13 13 63 7 63 -7z m110 5
c0 -5 -12 -40 -26 -77 -15 -38 -39 -105 -54 -149 -95 -273 -139 -395 -149
-414 -10 -17 -21 -21 -66 -21 -30 0 -55 4 -55 8 0 5 18 51 41 103 23 52 58
135 79 184 20 50 59 140 85 200 26 61 54 125 61 143 12 27 19 32 49 32 19 0
35 -4 35 -9z m95 -1 c4 -6 -12 -77 -35 -158 l-42 -147 -64 -65 c-35 -35 -66
-61 -70 -58 -3 4 24 91 61 195 37 103 72 200 77 216 8 21 16 27 38 27 16 0 32
-5 35 -10z m108 -10 c-5 -46 -87 -410 -92 -410 -9 0 -24 13 -53 45 l-27 30 38
125 c21 69 42 141 46 160 13 59 23 71 58 68 21 -2 31 -8 30 -18z m101 11 c8
-13 -82 -643 -93 -654 -20 -20 -31 7 -31 75 0 60 -4 76 -22 95 l-22 23 48 228
c27 125 50 230 53 235 6 10 61 9 67 -2z m106 -31 c0 -59 -39 -603 -45 -617 -3
-8 -25 -13 -60 -13 -65 0 -64 -5 -41 149 8 53 27 179 41 281 36 260 30 240 71
240 33 0 34 -1 34 -40z m105 -295 l0 -330 -54 -3 c-61 -4 -71 5 -65 52 2 17
13 159 24 315 11 156 23 288 26 293 3 5 20 8 37 6 l32 -3 0 -330z m105 323 c1
-7 11 -155 24 -328 13 -173 22 -318 19 -322 -8 -15 -110 -9 -116 6 -8 21 -8
641 0 649 12 12 73 8 73 -5z m105 -10 c9 -44 85 -595 85 -622 0 -27 -1 -27
-57 -24 l-58 3 -22 290 c-12 160 -22 309 -22 333 -1 41 -1 42 34 42 28 0 36
-4 40 -22z m107 -15 c12 -45 67 -308 80 -376 9 -54 9 -60 -11 -81 -17 -18 -21
-35 -21 -94 0 -67 -11 -95 -30 -76 -10 12 -101 644 -94 656 3 5 20 8 37 6 25
-2 32 -9 39 -35z m98 15 c6 -13 30 -92 54 -177 l44 -154 -31 -38 c-30 -36 -57
-50 -57 -31 0 5 -18 91 -40 193 -49 227 -49 229 -10 229 22 0 33 -6 40 -22z
m128 -60 c81 -219 122 -342 119 -352 -2 -6 -33 19 -69 55 l-64 65 -42 146
c-23 80 -42 150 -42 157 0 6 15 11 34 11 33 0 34 -2 64 -82z m134 -58 c32 -74
61 -144 64 -155 6 -18 30 -73 69 -161 40 -86 85 -197 85 -205 0 -6 -25 -9 -57
-7 l-57 3 -28 75 c-16 41 -48 131 -72 200 -24 69 -64 182 -89 252 -25 70 -42
130 -39 133 4 3 20 5 36 3 28 -3 33 -11 88 -138z m205 -185 c89 -176 162 -326
162 -332 1 -9 -16 -13 -53 -13 -31 0 -57 5 -63 13 -5 6 -24 48 -42 92 -19 44
-51 119 -72 168 -22 48 -39 89 -39 92 0 2 -27 65 -60 140 -33 75 -60 143 -60
151 0 11 9 14 33 12 32 -3 34 -8 194 -323z m-1828 191 c72 -13 91 -25 91 -57
0 -25 -24 -30 -77 -15 -26 8 -64 17 -84 20 -40 7 -85 48 -74 66 5 8 19 10 39
5 17 -3 64 -12 105 -19z m2066 13 c11 -17 -36 -58 -74 -65 -20 -3 -58 -12 -84
-20 -54 -15 -77 -10 -77 16 0 26 27 50 58 51 15 0 52 7 82 14 73 16 88 17 95
4z m-2125 -225 c0 -11 -8 -14 -27 -12 -39 4 -42 28 -4 28 21 0 31 -5 31 -16z
m2100 1 c0 -16 -55 -22 -64 -6 -8 13 5 21 36 21 18 0 28 -5 28 -15z m-1450
-270 l0 -85 370 0 370 0 0 85 0 85 80 83 79 82 81 -85 80 -85 -4 -63 c-6 -106
-13 -101 138 -104 l131 -3 0 -150 0 -150 -955 0 -955 0 0 150 0 150 135 5 135
5 1 83 1 82 58 63 c104 112 87 110 177 18 l78 -81 0 -85z m-705 111 c19 -8 35
-20 35 -26 0 -6 -16 -18 -35 -26 -69 -28 -155 -11 -155 32 0 19 6 23 38 27 73
7 83 7 117 -7z m2298 4 c4 0 7 -11 7 -23 0 -29 -35 -47 -91 -47 -42 0 -99 23
-99 41 0 20 64 38 120 34 30 -2 58 -4 63 -5z m-1933 -149 c0 -6 -4 -13 -10
-16 -5 -3 -10 1 -10 9 0 9 5 16 10 16 6 0 10 -4 10 -9z m1440 -1 c0 -5 -2 -10
-4 -10 -3 0 -8 5 -11 10 -3 6 -1 10 4 10 6 0 11 -4 11 -10z m-1762 -202 c3
-15 -4 -18 -37 -18 -40 0 -58 11 -46 31 11 17 79 7 83 -13z m2158 11 c9 -15
-15 -29 -52 -29 -37 0 -48 9 -33 27 14 16 75 17 85 2z m-2046 -211 c0 -21 -84
-118 -102 -119 -59 -3 -73 -2 -73 8 0 6 24 36 53 67 45 47 59 56 88 56 21 0
34 -5 34 -12z m130 0 c0 -21 -73 -118 -89 -118 -9 0 -25 -3 -36 -5 -11 -3 -26
-1 -34 4 -12 8 -7 20 28 65 23 30 48 57 54 60 24 9 77 6 77 -6z m130 0 c0 -7
-13 -36 -30 -65 -29 -50 -30 -51 -81 -55 -28 -1 -52 -1 -54 2 -2 3 17 33 41
68 42 58 48 62 85 62 25 0 39 -5 39 -12z m125 2 c4 -6 -5 -35 -19 -65 l-25
-55 -56 0 -57 0 23 38 c51 84 59 92 94 92 19 0 37 -5 40 -10z m128 -15 c-1
-11 -8 -38 -16 -60 -14 -36 -19 -41 -59 -46 -67 -10 -70 -5 -42 59 29 66 37
73 84 69 28 -2 35 -7 33 -22z m131 16 c7 -11 -16 -121 -26 -122 -35 -3 -87 -1
-96 4 -12 8 22 107 41 119 17 11 75 10 81 -1z m128 -56 c-2 -33 -5 -62 -7 -63
-2 -2 -25 -5 -52 -5 l-48 -2 2 46 c2 72 16 91 66 87 l42 -3 -3 -60z m136 -2
c3 -73 -6 -79 -109 -64 -10 2 2 105 14 119 6 8 26 12 51 10 l41 -3 3 -62z
m126 50 c2 -10 6 -40 8 -67 l3 -49 -45 -1 c-25 -1 -51 2 -57 7 -13 10 -18 83
-7 111 9 24 91 22 98 -1z m124 5 c11 -15 33 -111 26 -117 -6 -6 -97 -1 -103 5
-12 11 -17 110 -7 116 18 12 73 9 84 -4z m131 -6 c16 -29 41 -106 36 -110 -7
-8 -98 -3 -105 5 -12 13 -31 103 -25 114 4 5 24 9 45 9 28 0 42 -5 49 -18z
m151 -44 c16 -34 28 -63 26 -66 -11 -11 -95 -10 -104 1 -15 19 -42 109 -36
118 3 5 23 9 45 9 38 0 40 -2 69 -62z m96 54 c17 -11 75 -120 67 -124 -4 -2
-28 -4 -53 -3 -44 1 -45 2 -72 55 -16 30 -28 60 -28 67 0 14 67 18 86 5z m132
-9 c33 -29 83 -106 73 -112 -5 -4 -30 -5 -55 -3 -44 4 -47 7 -76 58 -17 30
-29 58 -25 64 10 16 61 12 83 -7z m170 -45 c28 -35 46 -65 41 -68 -6 -5 -63
-5 -90 -1 -9 1 -79 109 -79 121 0 5 18 10 39 10 36 0 43 -5 89 -62z m126 6
c28 -31 51 -61 51 -68 0 -12 -37 -17 -71 -10 -20 5 -104 103 -104 123 0 6 16
11 36 11 31 0 43 -8 88 -56z m-56 -239 l3 -131 -72 -77 c-80 -87 -112 -98
-117 -42 -6 71 -10 76 -50 73 l-37 -3 -3 -97 c-2 -78 -6 -98 -17 -98 -12 0
-15 19 -15 101 l0 100 -37 -3 -38 -3 -3 -106 c-2 -85 0 -108 13 -119 8 -7 15
-16 15 -21 0 -14 -130 -76 -231 -110 -86 -30 -93 -31 -105 -15 -14 20 -20 302
-6 322 4 6 17 15 30 18 30 10 19 24 -58 76 -31 21 -62 45 -69 54 -8 9 -54 44
-103 77 l-90 59 -26 -20 c-15 -12 -70 -51 -122 -88 -52 -36 -96 -69 -98 -73
-2 -4 -25 -22 -53 -39 -55 -36 -61 -47 -22 -47 46 0 53 -23 53 -178 0 -192 2
-190 -127 -147 -182 61 -271 118 -213 137 19 6 21 13 18 113 l-3 107 -40 0
-40 0 -3 -97 c-2 -77 -6 -98 -17 -98 -11 0 -14 19 -14 91 0 51 -4 96 -9 101
-5 5 -25 8 -43 6 -33 -3 -34 -4 -37 -51 -4 -56 -17 -65 -60 -43 -31 16 -132
130 -132 149 0 7 -2 59 -4 117 -3 57 0 112 5 122 9 17 58 18 992 16 l982 -3 3
-130z m-904 -120 c123 -94 112 -68 115 -267 2 -147 0 -177 -13 -187 -35 -29
-43 -8 -48 126 -3 70 -8 136 -13 146 -12 29 -60 47 -125 47 -69 0 -115 -19
-126 -52 -4 -13 -10 -79 -13 -148 -6 -116 -7 -125 -26 -125 -19 0 -20 7 -22
190 l-2 190 87 67 c48 37 93 68 101 68 8 0 46 -25 85 -55z m-124 -323 c0 -76
-3 -142 -7 -145 -3 -4 -12 -2 -20 4 -9 8 -13 43 -13 129 0 126 4 150 26 150
11 0 14 -27 14 -138z m115 116 c3 -13 4 -77 3 -143 -2 -99 -6 -120 -18 -120
-13 0 -15 24 -18 143 -2 121 0 142 13 142 8 0 17 -10 20 -22z"/>
<path d="M2164 2437 c-3 -8 -4 -39 -2 -68 l3 -54 78 -3 78 -3 -3 68 -3 68 -73
3 c-55 2 -74 0 -78 -11z"/>
<path d="M3224 2437 c-3 -8 -4 -39 -2 -68 l3 -54 75 0 75 0 0 65 0 65 -73 3
c-55 2 -74 0 -78 -11z"/>
<path d="M1874 2197 c-3 -8 -4 -52 -2 -98 l3 -84 58 -3 57 -3 0 101 0 100 -55
0 c-37 0 -57 -4 -61 -13z"/>
<path d="M2044 2197 c-3 -8 -4 -52 -2 -98 l3 -84 58 -3 57 -3 0 101 0 100 -55
0 c-37 0 -57 -4 -61 -13z"/>
<path d="M2465 2198 c-2 -7 -3 -51 -2 -98 l2 -85 78 -3 77 -3 0 101 0 100 -75
0 c-52 0 -77 -4 -80 -12z"/>
<path d="M2674 2197 c-3 -8 -4 -52 -2 -98 l3 -84 95 0 95 0 3 98 3 97 -96 0
c-70 0 -97 -4 -101 -13z"/>
<path d="M2920 2110 l0 -101 78 3 77 3 0 95 0 95 -77 3 -78 3 0 -101z"/>
<path d="M3380 2110 l0 -100 60 0 60 0 0 100 0 100 -60 0 -60 0 0 -100z"/>
<path d="M3550 2110 l0 -101 58 3 57 3 0 95 0 95 -57 3 -58 3 0 -101z"/>
<path d="M2021 1593 c-24 -20 -34 -40 -38 -71 l-6 -43 94 3 94 3 3 32 c4 40
-39 90 -84 99 -25 5 -38 0 -63 -23z"/>
<path d="M3434 1610 c-35 -14 -65 -60 -62 -94 l3 -31 91 -3 c83 -2 92 -1 97
17 7 28 -21 78 -58 101 -36 22 -40 23 -71 10z"/>
<path d="M2521 725 c-34 -45 -64 -220 -45 -269 9 -23 39 -19 57 7 24 37 48
117 54 182 9 96 -23 134 -66 80z m26 -121 c3 -8 -1 -23 -10 -32 -15 -14 -17
-14 -23 1 -8 21 1 47 16 47 6 0 13 -7 17 -16z"/>
<path d="M3034 535 c-9 -115 -9 -115 13 -115 33 0 40 54 19 148 -9 42 -18 77
-20 79 -1 2 -7 -49 -12 -112z"/>
<path d="M2895 605 c36 -184 42 -195 94 -195 20 0 18 6 -23 88 -24 48 -51 96
-60 107 l-15 20 4 -20z"/>
</g>
</svg>
